<svg width="38.4" height="38.4" xmlns="http://www.w3.org/2000/svg" fill="none">

 <g>
  <title>Layer 1</title>
  <g stroke-linejoin="round" stroke-linecap="round" id="SVGRepo_tracerCarrier"/>
  <g stroke-width="0" id="SVGRepo_bgCarrier">
   <rect id="svg_1" strokewidth="0" fill="#f0f0f0" rx="7.68" height="38.4" width="38.4" y="0" x="0"/>
  </g>
  <path transform="rotate(-15 19.2074 19.2035)" id="svg_3" fill="#e91e63" d="m27.90778,14.35717c0.5657,-2.22892 1.2768,-6.36222 -1.23,-7.76354c-2.4951,-1.39521 -5.742,1.27827 -7.4565,2.88302c-1.7095,-1.58876 -5.0476,-4.25081 -7.55227,-2.84504c-2.49412,1.39989 -1.72499,5.46466 -1.14673,7.70756c-2.32659,0.6407 -6.3149,2.0207 -6.3149,4.8402c0,2.8115 3.98416,4.3129 6.29698,4.953c-0.5804,2.2553 -1.31102,6.262 1.18629,7.6588c2.51403,1.4055 5.84173,-1.1932 7.57213,-2.8155c1.7255,1.6142 4.9412,4.2299 7.4368,2.8292c2.5034,-1.4051 1.8514,-5.483 1.2731,-7.7389c2.242,-0.6415 6.2347,-2.1102 6.2347,-4.8866c0,-2.7924 -4.0097,-4.1836 -6.2996,-4.8222zm-0.2842,8.5133c-0.3797,-1.1654 -0.8922,-2.4047 -1.5191,-3.6849c0.5984,-1.25 1.091,-2.4733 1.4601,-3.6312c1.6787,0.4719 5.3613,1.5504 5.3613,3.625c0,2.0941 -3.5339,3.1828 -5.3023,3.6911zm-1.5662,7.859c-1.862,1.045 -4.6279,-1.4564 -5.9022,-2.6451c0.8454,-0.8965 1.6902,-1.9387 2.5147,-3.096c1.4504,-0.1247 2.8205,-0.3287 4.0631,-0.6072c0.407,1.5957 1.1946,5.2986 -0.6756,6.3483zm-13.72638,-0.0149c-1.86219,-1.0411 -1.01104,-4.6165 -0.58405,-6.2778c1.22877,0.2636 2.58903,0.4532 4.04283,0.5675c0.8299,1.1324 1.6992,2.1733 2.5752,3.0849c-1.0823,1.0151 -4.1631,3.6713 -6.03398,2.6254zm-6.84213,-11.5352c0,-2.1019 3.66058,-3.1726 5.37755,-3.6433c0.37547,1.1839 0.86791,2.4218 1.46219,3.6736c-0.60198,1.2704 -1.10146,2.5279 -1.48038,3.7258c-1.63716,-0.4544 -5.35936,-1.6529 -5.35936,-3.7561zm6.82221,-11.47236c1.8698,-1.04938 4.771,1.50629 6.0122,2.65659c-0.8715,0.90741 -1.7328,1.94047 -2.5556,3.06637c-1.4109,0.1268 -2.76155,0.3304 -4.00321,0.6032c-0.46584,-1.80899 -1.32117,-5.27791 0.54661,-6.32616zm11.2756,7.07356c0.9572,0.1171 1.8743,0.2729 2.7354,0.4635c-0.2585,0.8034 -0.5807,1.6435 -0.9602,2.5047c-0.5501,-1.012 -1.1406,-2.0037 -1.7752,-2.9682zm-4.365,-3.529c0.5911,0.62087 1.1831,1.3142 1.7655,2.0664c-1.1813,-0.0542 -2.3645,-0.0544 -3.5458,-0.0008c0.5829,-0.74522 1.18,-1.43752 1.7803,-2.0656zm-6.1578,6.4963c-0.37321,-0.8582 -0.69252,-1.702 -0.95328,-2.5169c0.85596,-0.1857 1.76878,-0.3375 2.71978,-0.4527c-0.6364,0.9624 -1.2259,1.9537 -1.7665,2.9696zm1.7938,5.9213c-0.9824,-0.1063 -1.90904,-0.2504 -2.76474,-0.431c0.26488,-0.8292 0.59122,-1.6912 0.9724,-2.5679c0.54804,1.0265 1.14654,2.0274 1.79234,2.9989zm4.3995,3.5258c-0.6074,-0.6355 -1.2133,-1.3384 -1.805,-2.0944c1.188,0.0452 2.3783,0.0453 3.5662,-0.0061c-0.5842,0.7698 -1.1741,1.4737 -1.7612,2.1005zm6.1169,-6.5693c0.401,0.8862 0.739,1.7435 1.0075,2.5587c-0.8699,0.1925 -1.809,0.3475 -2.7985,0.4626c0.6393,-0.9828 1.2392,-1.9899 1.791,-3.0213zm-3.4194,3.1719c-1.8172,0.1259 -3.6457,0.1245 -5.4635,0.0103c-1.0329,-1.4629 -1.9524,-3.0014 -2.7461,-4.5986c0.7899,-1.5939 1.7027,-3.1294 2.7307,-4.59c1.8191,-0.1333 3.6494,-0.1337 5.4685,0.0008c1.0192,1.4605 1.9306,2.992 2.7388,4.5715c-0.7986,1.5931 -1.7162,3.1317 -2.7284,4.606zm4.083,-16.1275c1.8703,1.04594 1.0378,4.76066 0.6292,6.376c-1.2446,-0.2785 -2.5962,-0.4857 -4.0112,-0.6145c-0.8244,-1.13806 -1.6785,-2.17292 -2.5359,-3.06861c1.2571,-1.17508 4.0657,-3.7286 5.9179,-2.69289z" clip-rule="evenodd" fill-rule="evenodd"/>
  <path stroke="null" d="m19.19997,17.48423a3.35053,3.35053 0 0 0 -0.25728,-0.23058c-0.08406,-0.06723 -0.18437,-0.13918 -0.30103,-0.21584a1.61157,1.61157 0 0 0 -0.37823,-0.18287c-0.13548,-0.04514 -0.26843,-0.06777 -0.39866,-0.06777c-0.47066,0 -0.8394,0.13028 -1.10628,0.39083c-0.26693,0.2605 -0.40032,0.62195 -0.40032,1.08419c0,0.46433 0.24061,0.93708 0.72178,1.4183c0,0 1.31306,1.17769 2.12003,1.93234c0.80702,-0.75464 2.12008,-1.93234 2.12008,-1.93234c0.48117,-0.48122 0.72178,-0.95397 0.72178,-1.4183c0,-0.46224 -0.13339,-0.82369 -0.40032,-1.08419c-0.26688,-0.26055 -0.63562,-0.39083 -1.10628,-0.39083c-0.13022,0 -0.26318,0.02262 -0.39866,0.06777a1.61157,1.61157 0 0 0 -0.37823,0.18287c-0.11666,0.07667 -0.21697,0.14861 -0.30103,0.21584a3.36142,3.36142 0 0 0 -0.25734,0.23058z" fill="#E91E63"/>
 </g>
</svg>